<!DOCTYPE svg PUBLIC "-//W3C//DTD SVG 1.1//EN" "http://www.w3.org/Graphics/SVG/1.1/DTD/svg11.dtd">
<!-- Uploaded to: SVG Repo, www.svgrepo.com, Transformed by: SVG Repo Mixer Tools -->
<svg fill="#000000" width="800px" height="800px" viewBox="-3.5 -3.5 42.00 42.00" version="1.1" xmlns="http://www.w3.org/2000/svg" stroke="#000000">
<g id="SVGRepo_bgCarrier" stroke-width="0"/>
<g id="SVGRepo_tracerCarrier" stroke-linecap="round" stroke-linejoin="round" stroke="#fafafa" stroke-width="3.5700000000000003"> <title>cloud</title> <path d="M27.873 28c0 0 5.52 0.006 6.295-5.395 0.369-5.906-5.336-7.070-5.336-7.070s0.649-8.743-7.361-9.74c-6.865-0.701-8.954 5.679-8.954 5.679s-2.068-1.988-4.873-0.364c-2.511 1.55-2.067 4.388-2.067 4.388s-5.577 1.084-5.577 6.768c0.125 5.677 6.057 5.734 6.057 5.734"/> </g>
<g id="SVGRepo_iconCarrier"> <title>cloud</title> <path d="M27.873 28c0 0 5.52 0.006 6.295-5.395 0.369-5.906-5.336-7.070-5.336-7.070s0.649-8.743-7.361-9.74c-6.865-0.701-8.954 5.679-8.954 5.679s-2.068-1.988-4.873-0.364c-2.511 1.55-2.067 4.388-2.067 4.388s-5.577 1.084-5.577 6.768c0.125 5.677 6.057 5.734 6.057 5.734"/> </g>
</svg>